<?xml version="1.0" standalone="no"?>
<!DOCTYPE svg PUBLIC "-//W3C//DTD SVG 20010904//EN"
        "http://www.w3.org/TR/2001/REC-SVG-20010904/DTD/svg10.dtd">
<svg version="1.0" xmlns="http://www.w3.org/2000/svg"
     width="1110.000000pt" height="256.000000pt" viewBox="0 0 1110.000000 256.000000"
     preserveAspectRatio="xMidYMid meet">

    <g transform="translate(0.000000,256.000000) scale(0.100000,-0.100000)"
       fill="#000000" stroke="none">
        <path d="M8513 2552 c-34 -5 -28 -22 7 -22 17 0 30 4 30 9 0 14 -11 18 -37 13z"/>
        <path d="M8580 2545 c0 -12 7 -15 25 -13 14 2 26 8 26 13 0 6 -12 11 -26 13
-18 2 -25 -1 -25 -13z"/>
        <path d="M8674 2548 c-7 -12 -4 -15 20 -20 10 -1 21 2 23 8 5 14 -35 26 -43
12z"/>
        <path d="M8427 2542 c-24 -5 -15 -28 9 -24 10 2 21 6 23 8 9 9 -14 20 -32 16z"/>
        <path d="M8757 2534 c-11 -12 3 -24 29 -24 16 0 24 5 22 13 -5 13 -40 22 -51
11z"/>
        <path d="M8338 2523 c-19 -5 -24 -18 -10 -26 12 -8 54 12 47 23 -6 10 -9 11
-37 3z"/>
        <path d="M8840 2507 c0 -14 20 -27 41 -27 5 0 9 7 9 15 0 8 -4 15 -9 15 -5 0
-16 3 -25 6 -10 4 -16 1 -16 -9z"/>
        <path d="M8258 2503 c-18 -5 -25 -33 -9 -33 21 0 41 13 41 26 0 14 -3 15 -32
7z"/>
        <path d="M8924 2479 c-7 -12 12 -29 34 -29 19 0 14 18 -7 30 -14 7 -22 7 -27
-1z"/>
        <path d="M8173 2473 c-7 -2 -13 -12 -13 -20 0 -10 6 -13 16 -9 9 3 20 6 25 6
5 0 9 7 9 15 0 15 -14 18 -37 8z"/>
        <path d="M8098 2443 c-20 -5 -25 -33 -5 -33 6 0 19 5 27 10 19 12 2 28 -22 23z"/>
        <path d="M8995 2440 c-7 -12 42 -37 52 -27 4 4 -2 14 -13 22 -23 17 -31 18
-39 5z"/>
        <path d="M8013 2403 c-13 -5 -19 -33 -7 -33 3 0 14 5 25 10 34 19 19 38 -18
23z"/>
        <path d="M9072 2388 c6 -16 36 -34 44 -25 9 9 -15 37 -33 37 -8 0 -13 -5 -11
-12z"/>
        <path d="M7935 2357 c-11 -9 -14 -16 -7 -21 15 -9 42 4 42 20 0 18 -11 18 -35
1z"/>
        <path d="M9142 2338 c6 -16 36 -34 44 -25 9 9 -15 37 -33 37 -8 0 -13 -5 -11
-12z"/>
        <path d="M7860 2315 c-7 -8 -10 -19 -6 -22 9 -9 38 8 38 22 -1 16 -18 16 -32
0z"/>
        <path d="M9215 2290 c-10 -17 22 -47 35 -34 7 7 4 16 -9 28 -14 12 -21 14 -26
6z"/>
        <path d="M7781 2266 c-9 -10 -9 -16 -1 -21 12 -7 40 11 40 26 0 14 -26 10 -39
-5z"/>
        <path d="M9275 2231 c-7 -12 17 -41 34 -41 17 0 13 15 -8 34 -13 11 -21 14
-26 7z"/>
        <path d="M7713 2223 c-17 -6 -17 -33 0 -33 14 0 37 20 37 32 0 9 -18 9 -37 1z"/>
        <path d="M7640 2165 c-7 -9 -10 -19 -6 -22 8 -9 38 9 44 25 5 17 -23 15 -38
-3z"/>
        <path d="M9335 2171 c-7 -12 17 -41 34 -41 17 0 13 15 -8 34 -13 11 -21 14
-26 7z"/>
        <path d="M7582 2118 c-14 -14 -16 -38 -4 -38 12 0 32 23 32 37 0 16 -12 17
-28 1z"/>
        <path d="M9390 2102 c0 -5 9 -17 19 -26 22 -20 40 -4 21 19 -13 16 -40 20 -40
7z"/>
        <path d="M7522 2058 c-14 -14 -16 -38 -3 -38 5 0 14 7 21 15 17 20 0 41 -18
23z"/>
        <path d="M9455 2040 c-10 -17 22 -47 35 -34 7 7 4 16 -9 28 -14 12 -21 14 -26
6z"/>
        <path d="M7462 1988 c-14 -14 -16 -38 -4 -38 12 0 32 23 32 37 0 16 -12 17
-28 1z"/>
        <path d="M9510 1967 c0 -18 28 -42 37 -33 9 8 -9 38 -25 44 -7 2 -12 -3 -12
-11z"/>
        <path d="M7402 1928 c-14 -14 -16 -38 -4 -38 12 0 32 23 32 37 0 16 -12 17
-28 1z"/>
        <path d="M9560 1902 c0 -15 28 -47 35 -40 11 11 -5 48 -21 48 -8 0 -14 -4 -14
-8z"/>
        <path d="M7340 1855 c-19 -23 -1 -39 21 -19 10 9 16 21 13 25 -8 13 -20 11
-34 -6z"/>
        <path d="M9610 1833 c0 -5 7 -16 15 -27 19 -24 39 -12 22 14 -11 19 -37 28
-37 13z"/>
        <path d="M7286 1791 c-12 -14 -14 -21 -6 -26 17 -10 47 22 34 35 -7 7 -16 4
-28 -9z"/>
        <path d="M9666 1762 c-7 -12 22 -45 33 -38 7 5 7 13 -2 26 -12 21 -23 25 -31
12z"/>
        <path d="M7232 1728 c-14 -14 -16 -38 -4 -38 12 0 32 23 32 37 0 16 -12 17
-28 1z"/>
        <path d="M9716 1692 c-7 -12 22 -45 33 -38 7 5 7 13 -2 26 -12 21 -23 25 -31
12z"/>
        <path d="M7170 1655 c-19 -23 -1 -39 21 -19 10 9 19 21 19 26 0 13 -27 9 -40
-7z"/>
        <path d="M9766 1621 c-7 -11 20 -48 29 -39 9 8 -4 48 -15 48 -5 0 -11 -4 -14
-9z"/>
        <path d="M2870 1587 l-25 -11 28 -4 c32 -4 46 4 31 17 -5 5 -20 4 -34 -2z"/>
        <path d="M2942 1588 c3 -7 15 -12 28 -12 13 0 25 5 28 12 2 8 -7 12 -28 12
-21 0 -30 -4 -28 -12z"/>
        <path d="M3030 1590 c0 -5 11 -10 25 -10 14 0 25 5 25 10 0 6 -11 10 -25 10
-14 0 -25 -4 -25 -10z"/>
        <path d="M3120 1590 c0 -5 7 -10 15 -10 8 0 18 0 22 -1 4 0 9 4 11 10 2 6 -8
11 -22 11 -14 0 -26 -4 -26 -10z"/>
        <path d="M3207 1594 c-15 -15 -6 -24 24 -24 20 0 29 4 27 13 -5 14 -40 21 -51
11z"/>
        <path d="M7116 1584 c-8 -22 -8 -24 8 -24 12 0 26 20 26 36 0 12 -29 2 -34
-12z"/>
        <path d="M2770 1575 c0 -9 9 -15 25 -15 16 0 25 6 25 15 0 9 -9 15 -25 15 -16
0 -25 -6 -25 -15z"/>
        <path d="M3290 1576 c0 -11 9 -16 26 -16 31 0 28 23 -4 28 -15 2 -22 -2 -22
-12z"/>
        <path d="M2682 1569 c2 -6 7 -10 11 -10 4 1 16 1 27 1 11 0 20 5 20 10 0 6
-14 10 -31 10 -17 0 -29 -5 -27 -11z"/>
        <path d="M2595 1560 c-8 -13 20 -24 40 -16 8 3 15 10 15 16 0 13 -47 13 -55 0z"/>
        <path d="M3385 1555 c21 -17 37 -15 43 3 2 8 -8 12 -30 12 -31 -1 -32 -1 -13
-15z"/>
        <path d="M2527 1553 c-17 -4 -21 -25 -4 -24 4 1 14 1 22 1 8 0 15 7 15 15 0
15 -2 16 -33 8z"/>
        <path d="M3464 1548 c-7 -11 -5 -14 24 -22 16 -5 22 -3 22 7 0 17 -37 30 -46
15z"/>
        <path d="M9810 1542 c0 -5 6 -16 13 -27 16 -20 31 -7 21 19 -6 16 -34 23 -34
8z"/>
        <path d="M2436 1527 c-11 -8 -15 -17 -9 -20 14 -9 54 4 50 16 -5 17 -21 18
-41 4z"/>
        <path d="M7067 1522 c-21 -23 -21 -32 -3 -32 20 0 41 29 29 41 -6 6 -15 3 -26
-9z"/>
        <path d="M3540 1521 c0 -10 50 -25 57 -17 3 2 2 9 -2 15 -8 13 -55 15 -55 2z"/>
        <path d="M2354 1506 c-10 -8 -16 -18 -12 -22 11 -10 60 14 53 26 -8 14 -18 13
-41 -4z"/>
        <path d="M3630 1497 c0 -14 20 -27 41 -27 5 0 9 7 9 15 0 8 -4 15 -9 15 -5 0
-16 3 -25 6 -10 4 -16 1 -16 -9z"/>
        <path d="M2271 1481 c-7 -5 -11 -13 -7 -19 8 -14 46 -3 46 14 0 16 -18 18 -39
5z"/>
        <path d="M3710 1466 c0 -16 37 -32 48 -21 7 7 -25 35 -40 35 -4 0 -8 -6 -8
-14z"/>
        <path d="M9860 1471 c0 -21 13 -41 26 -41 17 0 17 5 4 31 -11 20 -30 26 -30
10z"/>
        <path d="M7012 1458 c-14 -14 -16 -38 -4 -38 12 0 32 23 32 37 0 16 -12 17
-28 1z"/>
        <path d="M2191 1451 c-7 -5 -10 -14 -7 -20 8 -13 46 3 46 19 0 12 -20 13 -39
1z"/>
        <path d="M3790 1426 c0 -16 37 -32 48 -21 7 7 -25 35 -40 35 -4 0 -8 -6 -8
-14z"/>
        <path d="M2113 1423 c-13 -5 -19 -33 -7 -33 3 0 14 5 25 10 34 19 19 38 -18
23z"/>
        <path d="M9906 1401 c-8 -13 20 -45 32 -37 9 5 8 12 -1 26 -13 22 -23 25 -31
11z"/>
        <path d="M2038 1389 c-10 -6 -18 -14 -18 -19 0 -13 21 -12 40 0 22 14 0 32
-22 19z"/>
        <path d="M3865 1391 c-5 -9 24 -31 39 -31 13 0 5 28 -10 34 -20 8 -22 8 -29
-3z"/>
        <path d="M6953 1380 c-17 -26 3 -38 22 -14 18 24 19 34 2 34 -7 0 -18 -9 -24
-20z"/>
        <path d="M1953 1353 c-13 -5 -19 -33 -7 -33 3 0 14 5 25 10 34 19 19 38 -18
23z"/>
        <path d="M3940 1341 c0 -15 28 -33 40 -26 8 5 8 11 -1 21 -13 15 -39 19 -39 5z"/>
        <path d="M6900 1315 c-19 -23 -1 -39 21 -19 10 9 16 21 13 25 -8 13 -20 11
-34 -6z"/>
        <path d="M9950 1321 c0 -11 29 -35 35 -29 10 9 -7 38 -21 38 -8 0 -14 -4 -14
-9z"/>
        <path d="M1873 1313 c-13 -5 -19 -33 -7 -33 3 0 14 5 25 10 34 19 19 38 -18
23z"/>
        <path d="M4012 1288 c6 -16 36 -34 44 -25 9 9 -15 37 -33 37 -8 0 -13 -5 -11
-12z"/>
        <path d="M1795 1267 c-11 -9 -14 -16 -7 -21 15 -9 42 4 42 20 0 18 -11 18 -35
1z"/>
        <path d="M6850 1245 c-16 -19 -3 -40 16 -24 15 13 19 39 5 39 -5 0 -14 -7 -21
-15z"/>
        <path d="M10000 1252 c0 -15 28 -47 35 -40 11 11 -5 48 -21 48 -8 0 -14 -4
-14 -8z"/>
        <path d="M4077 1243 c-8 -7 21 -43 35 -43 13 0 9 20 -6 36 -16 16 -20 17 -29
7z"/>
        <path d="M1723 1233 c-13 -5 -19 -33 -7 -33 15 0 44 22 39 31 -7 10 -13 10
-32 2z"/>
        <path d="M1646 1184 c-13 -9 -17 -17 -10 -24 7 -7 17 -5 30 4 13 10 16 18 9
25 -7 6 -16 5 -29 -5z"/>
        <path d="M4140 1177 c0 -18 28 -42 37 -33 9 8 -9 38 -25 44 -7 2 -12 -3 -12
-11z"/>
        <path d="M6795 1169 c-9 -29 2 -36 20 -13 18 24 19 34 1 34 -8 0 -18 -9 -21
-21z"/>
        <path d="M10050 1182 c0 -15 28 -47 35 -40 11 11 -5 48 -21 48 -8 0 -14 -4
-14 -8z"/>
        <path d="M1570 1135 c-7 -9 -10 -19 -6 -22 8 -9 38 9 44 25 5 17 -23 15 -38
-3z"/>
        <path d="M4200 1111 c0 -11 29 -35 35 -29 10 9 -7 38 -21 38 -8 0 -14 -4 -14
-9z"/>
        <path d="M6740 1105 c-19 -23 -1 -39 21 -19 10 9 19 21 19 26 0 13 -27 9 -40
-7z"/>
        <path d="M10100 1113 c0 -5 7 -16 15 -27 19 -24 39 -12 22 14 -11 19 -37 28
-37 13z"/>
        <path d="M1495 1087 c-12 -10 -14 -16 -7 -21 15 -9 54 12 47 25 -8 12 -18 11
-40 -4z"/>
        <path d="M4257 1054 c-9 -9 16 -44 30 -44 16 0 17 22 1 38 -13 13 -22 15 -31
6z"/>
        <path d="M1421 1036 c-9 -10 -9 -16 -1 -21 12 -7 40 11 40 26 0 14 -26 10 -39
-5z"/>
        <path d="M6690 1035 c-16 -19 -3 -40 16 -24 15 13 19 39 5 39 -5 0 -14 -7 -21
-15z"/>
        <path d="M10156 1042 c-7 -12 22 -45 33 -38 7 5 7 13 -2 26 -12 21 -23 25 -31
12z"/>
        <path d="M1351 986 c-9 -10 -9 -16 -1 -21 12 -7 40 11 40 26 0 14 -26 10 -39
-5z"/>
        <path d="M4310 983 c0 -5 7 -16 15 -27 19 -24 39 -12 22 14 -11 19 -37 28 -37
13z"/>
        <path d="M6636 964 c-10 -26 5 -39 21 -19 7 11 13 22 13 27 0 15 -28 8 -34 -8z"/>
        <path d="M10210 967 c0 -18 28 -42 37 -33 9 8 -9 38 -25 44 -7 2 -12 -3 -12
-11z"/>
        <path d="M1280 935 c-7 -9 -10 -19 -6 -22 8 -9 38 9 44 25 5 17 -23 15 -38 -3z"/>
        <path d="M4370 906 c0 -7 6 -19 14 -25 19 -16 32 5 16 24 -16 19 -30 19 -30 1z"/>
        <path d="M6586 894 c-10 -26 5 -39 21 -19 7 11 13 22 13 27 0 15 -28 8 -34 -8z"/>
        <path d="M10260 896 c0 -16 28 -42 36 -33 3 3 3 15 -1 26 -7 23 -35 29 -35 7z"/>
        <path d="M1216 885 c-24 -19 -12 -39 14 -22 11 6 20 17 20 24 0 17 -10 16 -34
-2z"/>
        <path d="M4425 850 c-7 -12 11 -40 26 -40 14 0 10 26 -5 39 -10 9 -16 9 -21 1z"/>
        <path d="M1153 833 c-14 -5 -18 -33 -5 -33 4 0 13 5 20 12 22 22 14 33 -15 21z"/>
        <path d="M6535 819 c-9 -29 2 -36 20 -13 18 24 19 34 1 34 -8 0 -18 -9 -21
-21z"/>
        <path d="M10310 832 c0 -5 9 -17 19 -26 22 -20 40 -4 21 19 -13 16 -40 20 -40
7z"/>
        <path d="M1086 771 c-12 -14 -14 -21 -6 -26 17 -10 47 22 34 35 -7 7 -16 4
-28 -9z"/>
        <path d="M4477 784 c-9 -9 16 -44 30 -44 16 0 16 10 -1 33 -14 18 -19 20 -29
11z"/>
        <path d="M10375 770 c-7 -12 11 -40 26 -40 14 0 10 26 -5 39 -10 9 -16 9 -21
1z"/>
        <path d="M6483 750 c-17 -26 3 -38 22 -14 18 24 19 34 2 34 -7 0 -18 -9 -24
-20z"/>
        <path d="M1028 716 c-18 -13 -25 -36 -10 -36 17 1 45 31 36 39 -5 6 -16 5 -26
-3z"/>
        <path d="M4530 707 c0 -18 28 -42 37 -33 9 8 -9 38 -25 44 -7 2 -12 -3 -12
-11z"/>
        <path d="M10430 697 c0 -18 28 -42 37 -33 9 8 -9 38 -25 44 -7 2 -12 -3 -12
-11z"/>
        <path d="M6433 680 c-17 -26 3 -38 22 -14 18 24 19 34 2 34 -7 0 -18 -9 -24
-20z"/>
        <path d="M956 651 c-11 -13 -14 -21 -7 -26 12 -7 41 17 41 34 0 17 -15 13 -34
-8z"/>
        <path d="M4590 630 c10 -19 40 -28 40 -12 0 13 -23 32 -37 32 -11 0 -11 -5 -3
-20z"/>
        <path d="M10487 644 c-9 -9 16 -44 30 -44 7 0 13 4 13 8 0 13 -36 43 -43 36z"/>
        <path d="M6383 610 c-9 -13 -9 -21 -2 -26 11 -7 40 26 33 38 -8 13 -19 9 -31
-12z"/>
        <path d="M890 595 c-7 -9 -10 -18 -7 -21 9 -9 48 16 42 27 -9 13 -21 11 -35
-6z"/>
        <path d="M4646 581 c-3 -4 3 -16 13 -25 22 -20 40 -4 21 19 -14 17 -26 19 -34
6z"/>
        <path d="M10550 565 c0 -16 27 -32 37 -21 7 7 -16 36 -28 36 -5 0 -9 -7 -9
-15z"/>
        <path d="M826 544 c-13 -9 -16 -18 -10 -23 5 -6 16 -4 28 5 13 9 16 18 10 23
-5 6 -16 4 -28 -5z"/>
        <path d="M6330 545 c-16 -19 -3 -40 16 -24 15 13 19 39 5 39 -5 0 -14 -7 -21
-15z"/>
        <path d="M4707 523 c-8 -7 21 -43 35 -43 13 0 9 20 -6 36 -16 16 -20 17 -29 7z"/>
        <path d="M10610 506 c0 -14 29 -31 38 -21 6 6 -18 35 -29 35 -5 0 -9 -6 -9
-14z"/>
        <path d="M753 493 c-17 -6 -17 -33 0 -33 14 0 37 20 37 32 0 9 -18 9 -37 1z"/>
        <path d="M6272 488 c-14 -14 -16 -38 -4 -38 12 0 32 23 32 37 0 16 -12 17 -28
1z"/>
        <path d="M4770 456 c0 -19 27 -39 40 -31 8 5 6 13 -6 26 -20 22 -34 25 -34 5z"/>
        <path d="M10672 448 c6 -16 36 -34 44 -25 9 9 -15 37 -33 37 -8 0 -13 -5 -11
-12z"/>
        <path d="M680 435 c-7 -9 -10 -19 -6 -22 8 -9 38 9 44 25 5 17 -23 15 -38 -3z"/>
        <path d="M6200 425 c-7 -9 -10 -19 -6 -22 8 -9 38 9 44 25 5 17 -23 15 -38 -3z"/>
        <path d="M4835 401 c-5 -9 24 -31 39 -31 13 0 5 28 -10 34 -20 8 -22 8 -29 -3z"/>
        <path d="M10740 397 c0 -7 9 -18 20 -24 26 -17 38 3 14 22 -24 18 -34 19 -34
2z"/>
        <path d="M610 385 c-7 -9 -10 -19 -6 -22 8 -9 38 9 44 25 5 17 -23 15 -38 -3z"/>
        <path d="M6136 371 c-12 -14 -14 -21 -6 -26 17 -10 47 22 34 35 -7 7 -16 4
-28 -9z"/>
        <path d="M4910 346 c0 -16 27 -29 42 -20 7 5 4 12 -7 21 -24 17 -35 17 -35 -1z"/>
        <path d="M10814 349 c-7 -11 26 -40 38 -33 13 8 9 19 -12 31 -13 9 -21 9 -26
2z"/>
        <path d="M543 343 c-13 -5 -19 -33 -7 -33 3 0 14 5 25 10 34 19 19 38 -18 23z"/>
        <path d="M6066 324 c-13 -9 -16 -18 -10 -23 5 -6 16 -4 28 5 13 9 16 18 10 23
-5 6 -16 4 -28 -5z"/>
        <path d="M4984 309 c-7 -11 26 -40 38 -33 13 8 9 19 -12 31 -13 9 -21 9 -26 2z"/>
        <path d="M10885 301 c-5 -9 24 -31 39 -31 13 0 5 28 -10 34 -20 8 -22 8 -29
-3z"/>
        <path d="M465 287 c-13 -10 -15 -16 -6 -21 12 -8 41 10 41 25 0 13 -13 11 -35
-4z"/>
        <path d="M5985 277 c-12 -10 -14 -16 -7 -21 15 -9 54 12 47 25 -8 12 -18 11
-40 -4z"/>
        <path d="M5062 258 c5 -15 48 -24 48 -10 0 10 -23 22 -42 22 -5 0 -8 -6 -6
-12z"/>
        <path d="M10962 258 c3 -7 15 -15 27 -16 16 -3 22 1 19 10 -3 7 -15 15 -27 16
-16 3 -22 -1 -19 -10z"/>
        <path d="M396 244 c-13 -9 -16 -18 -10 -23 5 -6 16 -4 28 5 13 9 16 18 10 23
-5 6 -16 4 -28 -5z"/>
        <path d="M5913 243 c-13 -5 -19 -33 -7 -33 3 0 14 5 25 10 34 19 19 38 -18 23z"/>
        <path d="M11047 244 c-11 -12 3 -24 29 -24 16 0 24 5 22 13 -5 13 -40 22 -51
11z"/>
        <path d="M5140 227 c0 -19 30 -31 44 -17 12 12 8 15 -21 24 -17 5 -23 3 -23
-7z"/>
        <path d="M5838 213 c-10 -3 -18 -11 -18 -19 0 -11 6 -13 23 -8 12 3 24 8 26
10 9 8 -15 20 -31 17z"/>
        <path d="M323 203 c-13 -5 -19 -33 -7 -33 3 0 14 5 25 10 34 19 19 38 -18 23z"/>
        <path d="M5220 197 c0 -17 37 -30 46 -15 7 11 5 14 -23 22 -17 5 -23 3 -23 -7z"/>
        <path d="M5304 179 c-8 -13 -3 -18 22 -21 10 -2 20 1 22 7 5 13 -36 26 -44 14z"/>
        <path d="M5737 184 c-4 -4 -7 -11 -7 -16 0 -13 50 -6 53 7 2 12 -36 19 -46 9z"/>
        <path d="M246 155 c-11 -8 -17 -18 -14 -21 11 -10 48 7 48 22 0 18 -10 17 -34
-1z"/>
        <path d="M5390 156 c0 -11 9 -16 26 -16 31 0 28 23 -4 28 -15 2 -22 -2 -22
-12z"/>
        <path d="M5650 154 c0 -10 7 -14 22 -12 32 5 35 28 4 28 -17 0 -26 -5 -26 -16z"/>
        <path d="M5473 148 c2 -7 14 -13 27 -13 13 0 25 6 28 13 2 8 -7 12 -28 12 -21
0 -30 -4 -27 -12z"/>
        <path d="M5563 148 c2 -7 12 -13 22 -13 10 0 20 6 23 13 2 7 -6 12 -23 12 -17
0 -25 -5 -22 -12z"/>
        <path d="M173 113 c-13 -5 -19 -33 -7 -33 3 0 14 5 25 10 34 19 19 38 -18 23z"/>
        <path d="M93 73 c-13 -5 -19 -33 -7 -33 3 0 14 5 25 10 34 19 19 38 -18 23z"/>
        <path d="M18 33 c-18 -5 -25 -33 -9 -33 21 0 41 13 41 26 0 14 -3 15 -32 7z"/>
    </g>
</svg>
